# xmcd CD database file
#
# Track frame offsets:
#	150
#	18407
#	37057
#
# Disc length: 722 seconds
#
# Revision: 0
# Processed by: cddbd v1.5.1PL2 Copyright (c) Steve Scherf et al.
# Submitted via: CDex 1.51
#
DISCID=1e02d003
DTITLE=Tachihara Ryo - heat
DYEAR=1900
DGENRE=Pop
TTITLE0=You Met Your Much In Me
TTITLE1=SOOKIE SOOKIE
TTITLE2=The Rose
EXTD=
EXTT0=
EXTT1=
EXTT2=
PLAYORDER=
